# xmcd
#
# Track frame offsets:
#	150
#	13870
#	26191
#	37527
#	55776
#	75583
#	91799
#	104974
#	120549
#	137750
#	158358
#	177460
#	198468
#	209161
#	223089
#	241186
#	259044
#
# Disc length: 3867 seconds
# Revision: 0
# Processed by: cddbd v1.5.2PL0 Copyright (c) Steve Scherf et al.
# Submitted via: dBpowerAMP V12.0
#
DISCID=e90f1911
DTITLE=Rick Underwood - Rick Underwood
DYEAR=2005
DGENRE=Country
TTITLE0=Lucky Me
TTITLE1=Love Let Down
TTITLE2=Home
TTITLE3=The One
TTITLE4=A Little Love
TTITLE5=Home At Last
TTITLE6=Like She Did
TTITLE7=California
TTITLE8=Someday
TTITLE9=Dancer
TTITLE10=Rocking Chair
TTITLE11=I Guess
TTITLE12=One Minute
TTITLE13=Light The Way
TTITLE14=Young One
TTITLE15=I Want It 
TTITLE16=Once Again (live on KSCK)
EXTD=
EXTT0=
EXTT1=
EXTT2=
EXTT3=
EXTT4=
EXTT5=
EXTT6=
EXTT7=
EXTT8=
EXTT9=
EXTT10=
EXTT11=
EXTT12=
EXTT13=
EXTT14=
EXTT15=
EXTT16=
PLAYORDER=
